<svg width="153" height="48" viewBox="0 0 153 48" fill="none" xmlns="http://www.w3.org/2000/svg">
<path d="M20.0001 4C8.9543 4 0 12.9543 0 24.0001C0 35.0458 8.9543 44.0002 20.0001 44.0002C29.9101 44.0002 38.1367 36.7925 39.7236 27.3334H39.5801C38.0999 33.0842 32.8796 37.3335 26.6668 37.3335C19.303 37.3335 13.3334 31.3639 13.3334 24.0001C13.3334 16.6362 19.303 10.6667 26.6668 10.6667C32.8796 10.6667 38.0999 14.9159 39.5801 20.6667H39.7236C38.1367 11.2076 29.9101 4 20.0001 4Z" fill="#A4BCFD"/>
<path d="M0 24.0001C0 12.9543 8.95434 4 20.0001 4C29.9101 4 38.1367 11.2076 39.7236 20.6667H26.2467C24.7666 14.9159 19.5462 10.6667 13.3334 10.6667C5.96956 10.6667 0 16.6363 0 24.0001Z" fill="#3538CD"/>
<path d="M0 24.0002C0 35.0459 8.95434 44.0002 20.0001 44.0002C29.9101 44.0002 38.1367 36.7926 39.7236 27.3335H26.2467C24.7666 33.0843 19.5462 37.3336 13.3334 37.3336C5.96956 37.3336 0 31.364 0 24.0002Z" fill="#3538CD"/>
<path d="M60.9915 34.0001C59.4312 34.0001 57.9795 33.7436 56.6364 33.2307C55.3131 32.6988 54.1477 31.958 53.1404 31.0082C52.1529 30.0584 51.3826 28.9566 50.8296 27.7029C50.2765 26.4302 50 25.0625 50 23.5998C50 22.1371 50.2765 20.7789 50.8296 19.5252C51.3826 18.2524 52.1529 17.1507 53.1404 16.2199C54.128 15.2891 55.2834 14.5672 56.6068 14.0543C57.9498 13.5224 59.4015 13.2565 60.9619 13.2565C62.621 13.2565 64.0924 13.5129 65.3763 14.0258C66.6798 14.5387 67.8155 15.2416 68.7833 16.1344L65.6725 19.1547C65.1195 18.5849 64.448 18.1384 63.6579 17.8155C62.8876 17.4926 61.9889 17.3311 60.9619 17.3311C60.0533 17.3311 59.2139 17.4831 58.4436 17.787C57.6931 18.072 57.0413 18.4899 56.4883 19.0408C55.955 19.5916 55.5303 20.2565 55.2143 21.0353C54.918 21.8142 54.7699 22.669 54.7699 23.5998C54.7699 24.5496 54.918 25.4139 55.2143 26.1927C55.5303 26.9716 55.955 27.6364 56.4883 28.1873C57.0413 28.7382 57.6931 29.1656 58.4436 29.4695C59.2139 29.7735 60.0533 29.9254 60.9619 29.9254C62.0284 29.9254 62.9568 29.764 63.7468 29.441C64.5368 29.1181 65.2183 28.6717 65.791 28.1018L68.9315 31.1222C67.9242 32.015 66.7687 32.7178 65.4651 33.2307C64.1813 33.7436 62.6901 34.0001 60.9915 34.0001ZM71.078 33.6866V13.0001H75.6109V33.6866H71.078ZM84.8172 33.9716C83.4938 33.9716 82.3088 33.6581 81.262 33.0313C80.2349 32.4044 79.4152 31.5496 78.8029 30.4668C78.2104 29.384 77.9141 28.1493 77.9141 26.7626C77.9141 25.3759 78.2104 24.1412 78.8029 23.0584C79.4152 21.9756 80.2349 21.1208 81.262 20.4939C82.3088 19.8671 83.4938 19.5536 84.8172 19.5536C85.785 19.5536 86.654 19.7341 87.4243 20.095C88.2144 20.456 88.8563 20.9593 89.3501 21.6052C89.8438 22.2321 90.1203 22.9539 90.1796 23.7707V29.7545C90.1203 30.5713 89.8438 31.3026 89.3501 31.9485C88.876 32.5754 88.244 33.0693 87.4539 33.4302C86.6639 33.7911 85.785 33.9716 84.8172 33.9716ZM85.7356 30.0394C86.7034 30.0394 87.4836 29.7355 88.0761 29.1276C88.6686 28.5007 88.9649 27.7124 88.9649 26.7626C88.9649 26.1167 88.8266 25.5469 88.5501 25.053C88.2934 24.5591 87.9181 24.1792 87.4243 23.9132C86.9503 23.6283 86.3973 23.4858 85.7652 23.4858C85.1332 23.4858 84.5703 23.6283 84.0765 23.9132C83.6025 24.1792 83.2173 24.5591 82.9211 25.053C82.6445 25.5469 82.5063 26.1167 82.5063 26.7626C82.5063 27.3895 82.6445 27.9498 82.9211 28.4437C83.1976 28.9376 83.5827 29.3271 84.0765 29.612C84.5703 29.8969 85.1233 30.0394 85.7356 30.0394ZM88.7871 33.6866V29.9539L89.4686 26.5916L88.7871 23.2294V19.8386H93.2311V33.6866H88.7871ZM96.4227 33.6866V19.8386H100.956V33.6866H96.4227ZM100.956 26.0787L99.0595 24.6541C99.4348 23.0394 100.067 21.7857 100.956 20.8929C101.844 20 103.079 19.5536 104.659 19.5536C105.35 19.5536 105.953 19.6581 106.466 19.8671C106.999 20.057 107.464 20.361 107.859 20.7789L105.163 24.0557C104.965 23.8467 104.718 23.6853 104.422 23.5713C104.126 23.4573 103.79 23.4003 103.415 23.4003C102.664 23.4003 102.062 23.6283 101.607 24.0842C101.173 24.5211 100.956 25.1859 100.956 26.0787ZM109.066 33.6866V19.8386H113.599V33.6866H109.066ZM111.347 17.9295C110.636 17.9295 110.044 17.7015 109.57 17.2456C109.116 16.7707 108.888 16.2009 108.888 15.536C108.888 14.8522 109.116 14.2823 109.57 13.8264C110.044 13.3705 110.636 13.1425 111.347 13.1425C112.058 13.1425 112.641 13.3705 113.095 13.8264C113.55 14.2823 113.777 14.8522 113.777 15.536C113.777 16.2009 113.55 16.7707 113.095 17.2456C112.641 17.7015 112.058 17.9295 111.347 17.9295ZM123.724 34.0001C122.242 34.0001 120.899 33.6866 119.694 33.0598C118.509 32.4139 117.571 31.5401 116.88 30.4383C116.189 29.3366 115.843 28.1018 115.843 26.7341C115.843 25.3664 116.189 24.1412 116.88 23.0584C117.571 21.9756 118.509 21.1208 119.694 20.4939C120.88 19.8481 122.223 19.5252 123.724 19.5252C125.225 19.5252 126.568 19.8386 127.753 20.4655C128.938 21.0923 129.876 21.9566 130.568 23.0584C131.259 24.1412 131.604 25.3664 131.604 26.7341C131.604 28.1018 131.259 29.3366 130.568 30.4383C129.876 31.5401 128.938 32.4139 127.753 33.0598C126.568 33.6866 125.225 34.0001 123.724 34.0001ZM123.724 30.0394C124.376 30.0394 124.948 29.9064 125.442 29.6405C125.936 29.3555 126.311 28.9661 126.568 28.4722C126.844 27.9593 126.983 27.38 126.983 26.7341C126.983 26.0882 126.844 25.5279 126.568 25.053C126.291 24.5591 125.906 24.1792 125.412 23.9132C124.938 23.6283 124.376 23.4858 123.724 23.4858C123.092 23.4858 122.529 23.6283 122.035 23.9132C121.541 24.1792 121.156 24.5591 120.88 25.053C120.603 25.5469 120.465 26.1167 120.465 26.7626C120.465 27.3895 120.603 27.9593 120.88 28.4722C121.156 28.9661 121.541 29.3555 122.035 29.6405C122.529 29.9064 123.092 30.0394 123.724 30.0394ZM147.549 33.6866L141.712 24.711H141.149L133.091 13.5699H138.631L144.379 22.0041H144.942L153 33.6866H147.549ZM132.706 33.6866L140.438 22.9159L144.023 24.8535L138.009 33.6866H132.706ZM145.119 24.1982L141.534 22.2606L147.341 13.5699H152.644L145.119 24.1982Z" fill="#0A0D12"/>
</svg>
